<?xml version="1.0" encoding="utf-8"?>
<!-- Generator: Adobe Illustrator 26.0.3, SVG Export Plug-In . SVG Version: 6.00 Build 0)  -->
<svg version="1.1" id="Layer_1" xmlns="http://www.w3.org/2000/svg" xmlns:xlink="http://www.w3.org/1999/xlink" x="0px" y="0px"
	 viewBox="0 0 1280 892" style="enable-background:new 0 0 1280 892;" xml:space="preserve">
<style type="text/css">
	.st0{fill:#301D13;}
	.st1{fill:#EC9E1C;}
	.st2{fill:#FFFFFF;}
</style>
<g>
	<g>
		<g>
		</g>
	</g>
</g>
<path class="st2" d="M143.49,471.61c0-13.49,0.24-25.78,0.74-36.88c0.5-11.09,1-21.81,1.5-32.15c0.5-10.35,1-21.06,1.5-32.17
	c0.5-11.09,0.76-23.39,0.76-36.88c0-16.19-0.24-31.18-0.69-44.98c-0.45-13.79-1.05-27.28-1.78-40.47
	c-0.76-13.19-1.74-26.61-2.92-40.26c-1.21-13.63-2.4-28.71-3.61-45.21c8.11,0.61,15.22,1.36,21.37,2.26
	c6.13,0.89,13.27,1.65,21.37,2.25c4.49,0.3,8.46,0.45,11.91,0.45s6.75,0,9.89,0c3.16,0,6.44,0,9.89,0s7.58,0,12.39,0
	c-0.62,17.98-1.36,34.33-2.26,49.02s-1.64,28.86-2.23,42.51c-0.62,13.65-1,27.59-1.14,41.83c-0.14,14.24,0.24,29.91,1.14,47
	c0.59,12.6,1.12,24.07,1.57,34.41c0.45,10.34,0.9,20.47,1.36,30.36c0.43,9.89,0.95,20.02,1.57,30.36
	c0.59,10.34,1.19,21.81,1.78,34.41c-8.13-0.59-15.29-1.36-21.47-2.25c-6.18-0.9-13.34-1.65-21.49-2.26
	c-4.21-0.29-7.92-0.44-11.08-0.44c-3.16,0-6.25,0-9.27,0c-3.02,0-6.18-0.07-9.49-0.23C151.46,472.14,147.7,471.91,143.49,471.61z"/>
<path class="st2" d="M437.78,169.44c20.26,9.48,36.42,22.53,48.49,39.11c12.06,16.61,21.22,36.97,27.47,61.09
	c6.25,24.14,9.91,52.04,11,83.71c1.06,31.67,0.75,67.35-0.96,107c-3.04,0.43-7.35,0.55-12.95,0.32c-5.6-0.22-11.31-0.43-17.12-0.65
	s-11.31-0.53-16.47-0.97c-5.19-0.43-9.05-0.65-11.65-0.65c-3.01,0-7.45,0-13.26,0s-11.96,0-18.42,0s-12.51,0.12-18.11,0.32
	c-5.6,0.22-9.7,0.32-12.27,0.32c0-3.45,0.1-7,0.31-10.66s0.34-7.21,0.34-10.68c-16.81,12.08-35.16,19.94-54.98,23.61
	c-19.82,3.66-37.79,2.8-53.95-2.6c-16.16-5.38-29.21-15.72-39.12-31.03c-9.91-15.29-13.15-35.88-9.7-61.74
	c1.3-9.91,4.95-20.57,11-32c6.01-11.41,13.56-22.62,22.62-33.6c9.05-11,19.41-21.34,31.03-31.04c11.65-9.69,23.71-17.77,36.22-24.24
	c12.47-6.46,24.87-10.76,37.18-12.92c12.27-2.15,24.02-1.3,35.23,2.58c-3.9-13.36-9.7-22.31-17.46-26.82
	c-7.76-4.53-16.61-5.83-26.51-3.88c-9.91,1.93-20.36,6.25-31.33,12.92c-11,6.7-21.46,14.45-31.37,23.29
	c-9.91,8.83-18.96,18.09-27.16,27.8c-8.17,9.69-14.42,18.42-18.72,26.17c-2.19-2.15-3.79-5.81-4.85-10.99
	c-1.09-5.18-1.95-11.21-2.6-18.11c-0.65-6.88-1.2-14.11-1.61-21.65c-0.44-7.53-0.65-14.97-0.65-22.31c0-11.19,0.85-21.54,2.6-31.03
	c1.71-9.48,2.36-14.44,1.91-14.86c6.46-3.45,16.61-7,30.41-10.68c13.77-3.66,29.08-6.36,45.89-8.08c16.81-1.71,34.03-1.71,51.7,0
	C407.61,158.24,423.57,162.56,437.78,169.44z M363.46,384.07c0.41,10.78,2.36,17.99,5.81,21.65c3.45,3.67,7.65,4.2,12.61,1.62
	c4.95-2.58,10.11-7.76,15.51-15.51c5.4-7.76,10.46-17.89,15.21-30.39c0.85-6.03,1.61-12.06,2.26-18.09
	c0.65-6.03,1.4-12.06,2.26-18.11c0.41-3.88,0.65-8.18,0.65-12.92c0-4.75-0.44-9.16-1.3-13.26c-0.85-4.1-2.26-7.33-4.2-9.7
	c-1.95-2.36-4.65-3.33-8.06-2.9c-6.49,0.87-12.3,4.63-17.46,11.31c-5.19,6.7-9.5,14.78-12.95,24.24
	c-3.45,9.48-6.01,19.83-7.76,31.03C364.32,364.26,363.46,374.59,363.46,384.07z"/>
<path class="st2" d="M855.28,338.92c0.59,12.6,1.12,24.52,1.57,35.77c0.45,11.24,0.9,22.26,1.36,33.06s0.9,21.81,1.33,33.06
	c0.45,11.24,0.97,23.17,1.59,35.76c-8.11-0.59-15.31-1.34-21.59-2.25c-6.3-0.9-13.36-1.64-21.16-2.25
	c-4.49-0.3-8.32-0.45-11.46-0.45c-3.16,0-6.23,0-9.22,0c-3,0-6.06-0.07-9.22-0.23c-3.14-0.14-6.82-0.37-11.01-0.68
	c0-13.49,0.21-26.23,0.67-38.23c0.45-11.99,0.97-23.84,1.57-35.53c0.59-11.7,1.14-23.62,1.57-35.77
	c0.45-12.14,0.69-24.96,0.69-38.45c-3.28,10.2-6.28,19.65-8.99,28.34c-2.69,8.7-5.3,17.25-7.85,25.64
	c-2.54,8.39-5.23,17.02-8.06,25.87c-2.85,8.84-6.06,18.66-9.65,29.46c-3.28-0.9-6.2-1.72-8.75-2.47c-2.54-0.75-4.92-1.5-7.16-2.25
	c-2.26-0.75-4.66-1.5-7.2-2.25c-2.54-0.75-5.59-1.58-9.18-2.48c-6.28-1.79-11.96-3.07-17.05-3.82c-5.09-0.75-10.77-2.02-17.05-3.83
	c-4.47-9.89-8.44-19.11-11.89-27.66c-3.42-8.55-6.8-17.01-10.08-25.41c-3.28-8.39-6.66-16.87-10.1-25.41
	c-3.42-8.55-7.39-17.76-11.86-27.66c0,6,0.07,11.99,0.21,18c0.14,6,0.38,12.45,0.69,19.34c0.59,12.59,1.12,24.06,1.57,34.41
	c0.45,10.34,0.9,20.46,1.36,30.36c0.45,9.89,0.97,20.01,1.57,30.36c0.62,10.34,1.21,21.81,1.81,34.4
	c-8.13-0.59-15.29-1.34-21.47-2.25c-6.18-0.89-13.34-1.64-21.49-2.25c-4.21-0.3-7.92-0.45-11.08-0.45c-3.16,0-6.25,0-9.27,0
	c-3.02,0-6.18-0.07-9.49-0.23c-3.33-0.14-7.08-0.37-11.29-0.67c0-13.5,0.24-25.79,0.74-36.88c0.5-11.09,1-21.81,1.5-32.17
	c0.5-10.34,1-21.06,1.5-32.15c0.5-11.09,0.76-23.39,0.76-36.88c0-16.19-0.24-31.18-0.69-44.98c-0.45-13.79-1.05-27.28-1.78-40.47
	c-0.76-13.19-1.74-26.61-2.92-40.26c-1.21-13.65-2.4-28.71-3.61-45.21c8.11,0.61,15.22,1.36,21.37,2.25
	c6.13,0.9,13.27,1.65,21.37,2.25c4.49,0.31,8.46,0.45,11.91,0.45c3.45,0,6.75,0,9.89,0c3.16,0,6.44,0,9.89,0c3.45,0,7.58,0,12.39,0
	c5.35,13.49,10.13,25.72,14.29,36.66c4.18,10.95,8.27,21.53,12.29,31.71c4.02,10.2,8.27,20.47,12.74,30.81
	c4.47,10.34,9.84,21.67,16.09,33.96c3.28,6,6.25,11.63,8.94,16.87c2.69,5.24,5.21,10.27,7.61,15.06c1.5-3.29,2.92-6.81,4.28-10.57
	c1.33-3.74,2.92-7.71,4.71-11.92c5.71-14.09,10.58-27.21,14.62-39.36c4.04-12.14,7.87-24.13,11.48-35.98
	c3.59-11.84,7.18-24.13,10.79-36.88c3.59-12.73,7.8-26.76,12.58-42.04c8.11,0.59,15.22,1.43,21.37,2.47
	c6.16,1.05,13.27,1.87,21.37,2.47c4.49,0.3,8.46,0.45,11.91,0.45c3.45,0,6.75,0,9.89,0c3.16,0,6.44-0.07,9.91-0.23
	c3.42-0.15,7.56-0.23,12.36-0.23c-0.59,17.98-1.28,34.26-2.02,48.8c-0.76,14.55-1.43,28.65-2.02,42.28
	c-0.62,13.65-0.97,27.59-1.14,41.83C854.44,306.17,854.66,321.84,855.28,338.92z"/>
<path class="st1" d="M380.95,728.14c0.73,15.46,1.37,29.54,1.93,42.24c0.55,12.69,1.11,25.12,1.66,37.26s0.99,24.48,1.37,36.98
	c0.35,12.52,0.9,26.51,1.66,41.96c-9.57-0.73-18.15-1.66-25.68-2.76c-7.56-1.11-16.28-2.03-26.23-2.76
	c-5.14-0.36-9.75-0.55-13.8-0.55s-7.91,0-11.58,0s-7.44,0-11.32,0c-3.85,0-8.37-0.19-13.51-0.55c0-11.77,0.18-22.72,0.55-32.84
	c0.35-10.13,0.73-19.78,1.08-28.99c-4.79-11.41-9.1-21.99-12.96-31.75c-3.88-9.75-7.64-19.4-11.32-28.97
	c-3.68-9.57-7.56-19.33-11.58-29.27c-4.06-9.94-8.67-20.98-13.8-33.12c-2.6-6.26-5.16-12.33-7.73-18.22
	c-2.6-5.88-5.16-11.58-7.73-17.11c0,10.68,0,21.53,0,32.58c0,11.03,0.35,22.99,1.11,35.88c0.73,15.46,1.46,29.54,2.19,42.24
	c0.76,12.69,1.4,25.12,1.95,37.26s1.08,24.57,1.63,37.26c0.55,12.69,1.2,26.77,1.96,42.24c-9.95-0.73-18.7-1.66-26.23-2.76
	c-7.56-1.11-16.11-2.03-25.68-2.77c-5.16-0.35-9.75-0.54-13.8-0.54c-4.06,0-7.91,0-11.58,0c-3.68,0-7.47-0.09-11.32-0.28
	c-3.85-0.19-8.37-0.47-13.51-0.83c0-16.56,0.26-31.64,0.82-45.27c0.55-13.61,1.11-26.77,1.66-39.46
	c0.55-12.71,1.08-25.85,1.63-39.48c0.55-13.61,0.85-28.71,0.85-45.27c0-20.24-0.29-38.72-0.85-55.48
	c-0.55-16.73-1.37-33.29-2.48-49.68c-1.11-16.37-2.31-32.93-3.59-49.69c-1.28-16.73-2.66-35.23-4.14-55.47
	c9.57,0.73,18.12,1.75,25.68,3.03s16.28,2.31,26.23,3.03c5.51,0.36,10.39,0.55,14.62,0.55s8.37,0,12.43,0s8.17,0,12.43,0
	c4.2,0,9.1,0,14.62,0c0,2.95,0,5.98,0,9.1c0,3.14-0.2,6.17-0.55,9.1c6.24,15.46,11.88,29.63,16.84,42.51
	c4.96,12.88,9.75,25.4,14.36,37.54c4.61,12.15,9.48,24.29,14.62,36.43c5.16,12.15,11.06,25.4,17.68,39.76
	c0-15.82-0.38-30.83-1.11-44.99s-1.66-28.33-2.77-42.51c-1.08-14.15-2.31-28.7-3.59-43.61s-2.48-31.19-3.59-48.86
	c9.57,0.74,18.12,1.75,25.68,3.03c7.56,1.3,16.28,2.31,26.23,3.05c5.51,0.36,10.39,0.54,14.62,0.54c4.23,0,8.37,0,12.43,0
	s8.17-0.09,12.43-0.28c4.2-0.18,9.1-0.26,14.62-0.26c-0.73,22.07-1.58,42.05-2.48,59.89c-0.93,17.86-1.75,35.15-2.48,51.89
	c-0.76,16.75-1.2,33.86-1.4,51.34C379.93,687.93,380.19,707.16,380.95,728.14z"/>
<path class="st1" d="M860.58,547.22c-0.36,10.25-0.18,19.27,0.57,27.05s0.96,16.61,0.57,26.47c-22-2.27-41.65-4.56-58.92-6.83
	c-17.27-2.27-35.21-3.79-53.81-4.56c-1.5,22.4-2.56,44.42-3.13,66.05c-0.57,21.64-0.09,45.92,1.41,72.87
	c0.75,15.95,1.44,30.47,2.02,43.56c0.54,13.09,1.11,25.91,1.69,38.43s1.23,25.34,2.02,38.43c0.75,13.09,1.5,27.61,2.26,43.56
	c-10.23-0.75-19.26-1.72-27.02-2.84c-7.79-1.14-16.82-2.09-27.05-2.86c-5.33-0.36-9.96-0.56-13.96-0.56c-3.97,0-7.88,0-11.68,0
	s-7.76-0.09-11.95-0.29c-4.18-0.2-8.91-0.48-14.23-0.86c0-17.08,0.3-32.64,0.87-46.69c0.54-14.04,1.11-27.61,1.69-40.7
	c0.57-13.11,1.14-26.66,1.72-40.72c0.57-14.04,0.84-29.61,0.84-46.69c0.39-23.52,0.21-44.78-0.54-63.77
	c-0.78-18.97-1.93-37.95-3.43-56.93c-14.05,0.77-27.72,1.53-40.99,2.29c-13.3,0.77-28.86,1.13-46.7,1.13
	c0-5.31,0.21-10.05,0.57-14.23c0.39-4.17,0.66-8.05,0.87-11.66c0.18-3.61,0.36-7.49,0.57-11.68c0.18-4.17,0.27-8.91,0.27-14.23
	c0.36-9.87,0.36-18.69,0-26.47c-0.39-7.78-0.57-16.81-0.57-27.05c12.16,0.77,23.14,1.52,33.01,2.29c9.87,0.75,19.65,1.41,29.34,1.99
	c9.66,0.57,19.53,1.14,29.61,1.72c10.05,0.56,21.15,1.41,33.28,2.56c16.34,0.77,31.42,1.05,45.29,0.86
	c13.84-0.2,27.41-0.57,40.68-1.14c13.3-0.57,27.05-1.23,41.29-2c14.23-0.75,30.06-1.5,47.55-2.27c-0.39,6.08-0.78,11.3-1.14,15.66
	c-0.39,4.36-0.78,8.53-1.14,12.52c-0.39,3.99-0.75,8.17-1.14,12.53C860.79,536.51,860.58,541.54,860.58,547.22z"/>
<path class="st1" d="M1127.2,692.31c15.61,12.68,25.97,26.92,31.09,42.74c5.12,15.85,6.57,35.81,4.35,59.87
	c-3.57,39.93-26.53,67.18-68.85,81.75c-42.32,14.57-106.48,13.94-192.5-1.91c0.46-5.07,0.67-11.4,0.67-19.01s-0.11-15.34-0.32-23.28
	c-0.25-7.91-0.46-15.52-0.67-22.8c-0.25-7.28-0.32-13.13-0.32-17.58c0-4.42-0.35-11.25-1.02-20.44c-0.67-9.17-1.34-18.84-2.01-28.98
	c-0.67-10.12-1.24-19.46-1.66-28.03c-0.46-8.56-0.67-14.42-0.67-17.58c17.38,2.54,36,7.61,55.82,15.19
	c19.82,7.61,38.44,14.74,55.82,21.4c17.38,6.66,31.97,11.08,43.77,13.29c11.8,2.24,18.16-0.78,19.04-9.02
	c0.88-6.33-3.11-12.98-12.01-19.97c-8.94-6.96-20.07-14.39-33.42-22.33c-13.39-7.91-27.98-16.47-43.81-25.64
	c-15.79-9.19-30.38-19.49-43.77-30.89c-13.35-11.4-24.27-24.08-32.75-38.02c-8.48-13.91-12.01-29.46-10.7-46.56
	c2.23-43.07,25.51-74.26,69.84-93.6c44.34-19.31,109.73-21.05,196.17-5.22c-1.31,12.68-1.87,27.55-1.66,44.65
	c0.21,17.1,0.35,29.79,0.35,38.02c0,5.07,0.21,11.73,0.64,19.94c0.46,8.26,1.02,16.98,1.7,26.14c0.67,9.19,1.2,17.91,1.66,26.14
	c0.42,8.24,0.67,14.57,0.67,18.99c-18.26,1.91-37.66,0.33-58.15-4.75c-20.49-5.05-39.43-10.3-56.81-15.67
	c-17.38-5.37-31.65-8.87-42.78-10.45c-11.13-1.58-16.04,2.36-14.7,11.88c0.88,6.96,6.11,13.13,15.69,18.51
	c9.57,5.4,21.3,11.28,35.12,17.58c13.78,6.35,28.4,13.16,43.77,20.44C1100.14,674.4,1114.27,682.79,1127.2,692.31z"/>
<g>
	<path class="st2" d="M600.31,756.47c-7.58,37.97-23.94,79.54-59.34,99.32c-7.26,4.06-14.22,8.63-20.32,14.29l-18.36,17.05
		l-9.97-11.31c-4.35-4.93-10.27-8.08-16.71-9.42c-2.18-0.45-4.39-1.04-6.62-1.73c-2.97-0.88-5.79-1.99-8.41-3.35
		c-8.75-4.47-15.51-11.57-20.08-21.1c-5.74-12.11-9.77-26.99-11.72-44.2c-1.9-17.46-2.72-36.37-2.09-56.74
		c0.44-20.62,0.63-41.04,0.63-61.46c1.9-0.39,4.47-0.39,7.88-0.19c3.4,0,7,0.19,10.6,0.44c3.65,0.44,7.24,0.63,10.41,1.07
		c3.4,0.39,5.74,0.63,7.24,0.63h37.39c0,13.37-0.83,26.16-2.09,38.46c-1.51,12.35-2.77,23.58-3.84,34.23
		c-1.07,10.41-1.26,19.55-0.63,27.18c0.44,7.68,2.53,13.61,6.56,17.89c3.21,3.16,6.42,5.06,9.58,5.93c3.4,0.83,6.37,0.63,9.58-0.19
		c2.97-0.88,5.93-2.58,8.7-5.11l0.63-0.63c0.44-0.44,0.88-0.88,1.26-1.31c0.24-0.39,0.44-0.83,0.63-1.26
		c4.08-9.77,5.11-29.56,4.47-50.18v-2.97c-0.63-21.25-2.53-42.5-3.79-53.78c-0.24-1.7-0.24-2.97-0.44-4.23
		c-0.24-2.58-0.44-4.04-0.44-4.04c4.04,0,7.44,0,10.41,0.19c2.97,0,5.98,0.24,8.75,0.44h19.3c6.81-0.19,12.98-0.63,18.28-1.07
		c5.35-0.63,11.72-0.83,18.72-1.26C606.49,678.04,608.82,714.99,600.31,756.47z"/>
</g>
<path class="st2" d="M426.57,667.62h176.87c6.52,0,11.81-5.29,11.81-11.81v-25.35c0-10.84-8.77-19.65-19.62-19.68l-72.63-0.23
	c0,0,12.28-29.83,7.02-46.41c-0.53-1.66-2.05-2.79-3.79-2.79l-21.46,0c-2.66,0-4.55,2.56-3.76,5.1c3.12,9.98,9.23,32.15,6.24,44.1
	h-72.82c-10.87,0-19.68,8.81-19.68,19.68v25.58C414.77,662.33,420.05,667.62,426.57,667.62z"/>
<path class="st2" d="M74.05,408.21c0,0-13.05-32.09,3.11-35.68c5.45-1.21,11,1.65,14.01,6.35c8.83,13.79,29.08,48.98,12.99,59.19
	c-1.52,0.96-3.42,1.16-5.16,0.74C94.02,437.59,84.06,432.02,74.05,408.21L74.05,408.21z"/>
<path class="st2" d="M0.83,454.11c0,0,2.74-22.52,59.11,2.61c60.34,26.91,15.95,56.79,0.13,36.58
	c-15.83-20.21-43.4-18.99-54.42-25.95C-0.51,463.47,0.83,454.11,0.83,454.11z"/>
<path class="st2" d="M2.31,546.12c2.82-2.48,6.66-3.39,10.38-2.92c6.25,0.79,19.48,0.15,34.41-14.48
	c20.76-20.33,30.98,8.34,15.83,20.21C50.05,559.02,32,569.48,6.91,558.56C-1.78,554.78-0.98,549.02,2.31,546.12z"/>
<path class="st1" d="M1208.84,608.12c-5.81-1.7-7.42-9.2-3.27-13.61c10.28-10.91,37.04-30.66,58.54-12.52
	c16.49,13.91,0.12,19.23-14.89,19.22c-5.96,0-11.8,1.25-17.28,3.58C1225.54,607.51,1216.33,610.31,1208.84,608.12z"/>
<path class="st1" d="M1186.58,658.31c0,0-11.41,26.74,69.8,22.86c10.43-0.5,16.93-4.53,21.56-11.83c5.45-8.6,1.78-19.35-32.34-19.82
	C1187.52,648.7,1186.58,658.31,1186.58,658.31L1186.58,658.31z"/>
<path class="st1" d="M1195.67,739.17c-1.24-1.5-2.55-2.94-3.9-4.35c-4.08-4.28-13.1-15.24-1.2-17.96
	c14.87-3.4,46.62,19.08,44.28,43.09c-2.34,24.01-30.16-9.82-37.01-18.15L1195.67,739.17z"/>
<g>
	<g>
		<g>
		</g>
	</g>
</g>
<path class="st2" d="M1085.29,289.15c1.54,0.5,4.42,1.2,8.15,1.05c1.22-0.05,1.97,1.31,1.26,2.3c-5.36,7.5-22.45,28.92-45.89,33.64
	c-0.76,0.15-1.13-0.89-0.44-1.25c8.43-4.34,27.71-15.99,35.16-34.87C1083.8,289.31,1084.56,288.92,1085.29,289.15z"/>
<path class="st2" d="M1124.63,327.9h-23.38c0.02-0.39,0.21-0.81,0.58-1.1c18.43-13.99,17.9-29.95,15.57-38.92
	c-0.05-0.19-0.1-0.39-0.15-0.58c-0.26-0.86-0.51-1.66-0.75-2.37c-0.21-0.58-0.41-1.11-0.6-1.59c-0.6-1.44-0.26-3.1,0.87-4.2
	c0.79-1.08,1.51-2.16,2.18-3.27c0.51-0.89,1.01-1.78,1.46-2.71c4.59-9.22,5.59-19.82,4.7-30.16c-0.21,1.15-0.57,2.93-0.86,3.84
	c-0.36,1.03-0.86,2.18-1.58,3.41c-0.09,0.15-0.21,0.31-0.31,0.48c-4.32,6.79-15.79,15.04-46.26,12.43
	c-1.75-0.15-3.09,1.53-2.54,3.21c0.19,0.58,0.45,1.22,0.77,1.89c2.67,5.49,10.68,13.77,34.39,18.26c-1.05,2.81-2.71,6.86-3.26,7.7
	c-10.75,17.01-23.38,27.38-34.89,33.69c-14.5,7.97-27.19,9.52-32.01,9.79c-1.29,0.07-2.59-0.17-3.75-0.72
	c-5.69-2.69-10.68-5.74-15.09-9.07c-21.12-15.88-28.29-38.01-30.04-57.54l-0.89-9.94c32.4,9.05,44.34,2.06,48.47-2.54
	c1.23-1.37,0.58-3.6-1.18-4.18c-46.27-15.14-40.49-34.22-36.79-37.75c0-0.02,0-0.02,0.02-0.03c10.22-10.01,29.92-15.1,54.3-13.72
	c1.05,0.07,2.13,0.15,3.21,0.22c1.73,0.15,3.1,1.54,3.22,3.26l0.55,7.7c0.03,0.34,0.51,0.38,0.6,0.05c0.5-2.09,1.29-5.83,1.9-10.37
	c0.45-3.43,0.79-7.34,0.79-11.32c0-3.38,2.81-6.09,6.22-6.09h5.45c3.14,0,5.54,2.76,5.04,5.83c-0.6,3.67-1.56,8.74-3.07,14.11
	c-2.61,9.41-6.82,19.72-13.44,25.15c-0.24,0.21-0.19,0.53,0,0.7c0.02,0,0.03,0.02,0.05,0.03c0,0,0,0,0.02,0
	c0.05,0.02,0.12,0.03,0.24,0.03h0.02c0.75-0.14,1.56-0.43,2.35-0.75c2.13-0.89,4.08-2.19,5.73-3.81
	c6.19-6.09,9.52-13.97,10.85-17.73c0.43-1.22,1.75-1.89,3-1.53c18.43,5.49,31.17,14.37,36.55,24.22c0.17,0.29,0.63,0.14,0.57-0.21
	c-2.38-11.62-6.43-22.06-9.34-28.65c-0.02-0.05-0.03-0.1-0.07-0.14c-1.59-3.58-2.83-5.98-3.26-6.82c-0.1-0.19-0.15-0.31-0.15-0.31
	c-0.55-0.89,0.15-1.99,1.18-1.94c9.29,0.62,19.53-7.75,16.96-10.32c-3.22-3.22-4.97-5.57-5.93-7.17c-0.7-1.2,0.24-2.69,1.65-2.62
	c3.74,0.22,6.19,0.87,7.73,1.51c1.11,0.45,2.31-0.39,2.33-1.58c0.67-24.31-14.5-43.32-23.92-52.74c-4.05-4.05-7.85-8.37-11.21-13.03
	c-1.35-1.87-2.9-3.67-4.47-4.71c-2.04-1.35-4.1-0.09-5.66,1.59c-2.33,2.52-5.74,3.75-9.16,3.41l-0.15-0.02
	c-4.2-0.41-7.68-3.21-9.26-7.1c-0.55-1.32-1.15-2.49-1.75-3.45c-1.97-3.24-6.31-4.27-9.4-2.07c-5.25,3.7-6.87,11.08-6.77,17.8
	c0.1,8.26-1.1,14.18-2.95,20.85c-5.79,21.02-18.88,37.01-19.7,37.99c0.57-0.96,8.52-14.59,11.25-29.54
	C1062.23,28.14,1012.73-14.95,938.22,4.1c-1.32,0.34-1.18,2.25,0.15,2.42c10.39,1.29,30.09,5.81,42.05,21.46
	c1.17,1.53-0.24,3.65-2.09,3.14c-18.53-5.21-81.25-18.28-113.72,32.15c-1.22,1.9,0.67,4.29,2.78,3.51
	c14.59-5.26,51.02-14.61,76.99,11.33c7.83,7.82,9.34,20.56,9.6,26.33c0.03,0.96-1.15,1.42-1.77,0.69
	c-4.23-4.99-15.84-16.27-33.69-15.07c-1.06,0.09-1.37,1.51-0.41,1.97c10.2,4.87,38.52,22.94,37.97,72.91
	c-0.67,60.04-55.08,103.84,20.3,161.58c0.46,0.36,0.62,0.89,0.51,1.37h-5.35c-22.87,0-43.99,12.14-55.03,31.91
	c-12.19,21.79-21.41,52.41-5.67,84.11l3.03-0.29c41.61-28.79,122.08-62.06,248.39-23.09l1.39-53.08
	C1164.25,345.78,1146.59,327.9,1124.63,327.9z M1088.85,142.73c1.25-1.27,3-2.06,4.94-2.06c1.92,0,3.67,0.79,4.94,2.06
	c1.27,1.27,2.04,3,2.04,4.94v5.38c0,0.89-0.72,1.61-1.61,1.61h-5.09c-3.24,0-6.62-2.59-7.17-5.79
	C1086.49,146.47,1087.34,144.24,1088.85,142.73z M1059.23,106.19c1.42-3.7,6.84-3.45,7.73,0.43c1.15,4.99-1.65,13.18-3.03,16.72
	c-0.26,0.7-1.25,0.75-1.61,0.09C1057.7,114.83,1058.01,109.36,1059.23,106.19z"/>
<path class="st2" d="M1009.33,220.44c9.27,10.4,57.09,42.71,105.79,20.33c0.93-0.43,1.75,0.74,1.13,1.61
	c-3.14,4.43-12.51,12.07-35.57,12.14c-16.12,0.05-32.03-3.85-46.77-10.79c-11.16-5.25-23.08-12.87-25.91-22.22
	C1007.73,220.64,1008.74,219.78,1009.33,220.44z"/>
</svg>
